<svg width="19" height="19" viewBox="0 0 19 19" fill="none" xmlns="http://www.w3.org/2000/svg">
<path d="M18.2733 7.61233L17.8592 7.17386L16.4058 3.25613C16.1581 2.59438 15.5248 2.15592 14.8184 2.15186H4.43739C3.73098 2.15186 3.09765 2.59438 2.85 3.25613L1.41688 7.12515L0.820086 7.67728C0.300427 8.1198 0 8.76938 0 9.45143V15.1595C0.00405983 16.0933 0.763248 16.8484 1.69701 16.8484H2.7688C3.70256 16.8484 4.46175 16.0933 4.46581 15.1595V14.3313H14.5342V15.1595C14.5382 16.0933 15.2974 16.8484 16.2312 16.8484H17.303C18.2368 16.8484 18.9959 16.0933 19 15.1595V9.30121C18.9959 8.66382 18.7361 8.05485 18.2733 7.61233ZM3.61325 3.5322C3.74316 3.18711 4.07201 2.96382 4.43739 2.96382H14.8224C15.1878 2.96382 15.5167 3.19117 15.6466 3.5322L16.9132 6.94245H15.9673C15.744 5.42002 14.3271 4.36852 12.8047 4.59587C11.5908 4.7745 10.6368 5.72856 10.4581 6.94245H2.34658L3.61325 3.5322ZM15.1391 6.94245H11.2782C11.5015 5.87472 12.5489 5.19267 13.6167 5.41596C14.3799 5.57835 14.9767 6.17515 15.1391 6.94245ZM3.65385 15.1595C3.64979 15.6467 3.25598 16.0365 2.7688 16.0365H1.69701C1.20983 16.0365 0.816026 15.6467 0.811966 15.1595V14.0959C1.05556 14.2542 1.37628 14.3313 1.69701 14.3313H3.65385V15.1595ZM18.188 15.1595C18.184 15.6467 17.7902 16.0365 17.303 16.0365H16.2312C15.744 16.0365 15.3502 15.6427 15.3462 15.1595V14.3313H17.303C17.6237 14.3313 17.9444 14.2542 18.188 14.0959V15.1595ZM17.303 13.5194H1.69701C1.21389 13.5234 0.816026 13.1378 0.811966 12.6506V9.45143C0.811966 9.00485 1.0109 8.57856 1.35192 8.29032C1.35598 8.28626 1.3641 8.27814 1.36816 8.27408L1.9203 7.75442H17.2949L17.6846 8.17258C17.6887 8.1807 17.7009 8.18476 17.7049 8.19288C18.0094 8.48113 18.184 8.88305 18.184 9.30121V12.6506H18.188C18.184 13.1337 17.7861 13.5234 17.303 13.5194Z" fill="#696969"/>
<path d="M5.35894 9.37842H2.31406C2.09077 9.37842 1.90808 9.56111 1.90808 9.7844V11.8955C1.90808 12.1188 2.09077 12.3015 2.31406 12.3015H5.35894C5.58223 12.3015 5.76492 12.1188 5.76492 11.8955V9.7844C5.76492 9.56111 5.58223 9.37842 5.35894 9.37842ZM4.95295 11.4895H2.72005V10.1904H4.95295V11.4895Z" fill="#696969"/>
<path d="M16.686 9.37842H13.6411C13.4178 9.37842 13.2351 9.56111 13.2351 9.7844V11.8955C13.2351 12.1188 13.4178 12.3015 13.6411 12.3015H16.686C16.9093 12.3015 17.0919 12.1188 17.0919 11.8955V9.7844C17.0919 9.56111 16.9093 9.37842 16.686 9.37842ZM16.28 11.4895H14.0471V10.1904H16.28V11.4895Z" fill="#696969"/>
<path d="M11.461 11.0835H7.53916C7.31587 11.0835 7.13318 11.2662 7.13318 11.4895C7.13318 11.7128 7.31587 11.8955 7.53916 11.8955H11.461C11.6842 11.8955 11.8669 11.7128 11.8669 11.4895C11.8669 11.2662 11.6842 11.0835 11.461 11.0835Z" fill="#696969"/>
<path d="M11.461 9.82471H7.53916C7.31587 9.82471 7.13318 10.0074 7.13318 10.2307C7.13318 10.454 7.31587 10.6367 7.53916 10.6367H11.461C11.6842 10.6367 11.8669 10.454 11.8669 10.2307C11.8669 10.0074 11.6842 9.82471 11.461 9.82471Z" fill="#696969"/>
</svg>
