<svg width="15" height="13" viewBox="0 0 15 13" fill="none" xmlns="http://www.w3.org/2000/svg">
<path d="M13.7574 1.36542C12.1262 -0.186851 9.47106 -0.186851 7.83932 1.36506L7.50003 1.68733L7.16109 1.36521C5.52917 -0.186909 2.87443 -0.186733 1.24251 1.36521C0.44124 2.12734 0 3.13823 0 4.21137C0 5.28487 0.44124 6.29558 1.24263 7.05803L7.13771 12.6547C7.23911 12.7512 7.36966 12.7993 7.5 12.7993C7.63034 12.7993 7.76071 12.751 7.86229 12.6545L13.7574 7.05803C14.5586 6.29576 15 5.2849 15 4.21155C15 3.13823 14.5586 2.12751 13.7574 1.36542ZM13.0321 6.29488L7.5 11.5472L1.96808 6.29505C1.37771 5.73367 1.05264 4.99366 1.05264 4.21155C1.05264 3.42944 1.37771 2.68943 1.96808 2.12804C2.58387 1.54208 3.39264 1.24928 4.20158 1.24928C5.0107 1.24928 5.81982 1.54243 6.43562 2.12839L7.13736 2.7949C7.34051 2.98805 7.65929 2.98805 7.86246 2.7949L8.56438 2.12804C9.79614 0.956284 11.8002 0.956284 13.0319 2.12804C13.6221 2.68946 13.9474 3.42944 13.9474 4.21155C13.9474 4.99366 13.6221 5.73349 13.0321 6.29488Z" fill="#696969"/>
</svg>
