<svg width="17" height="17" viewBox="0 0 17 17" fill="none" xmlns="http://www.w3.org/2000/svg">
<g clip-path="url(#clip0_1987_17153)">
<path d="M16.1488 0.146667L0.147349 16.1481C-0.166093 16.4616 0.0562639 17 0.500179 17H16.5016C16.7772 17 17.0006 16.7766 17.0006 16.501V0.499531C17.0007 0.0562469 16.4627 -0.167208 16.1488 0.146667ZM16.0027 16.002H1.70491L4.24276 13.4641L4.93784 14.1592C5.03528 14.2567 5.16299 14.3054 5.29067 14.3054C5.73126 14.3054 5.95877 13.7688 5.6435 13.4535L4.94842 12.7584L6.37182 11.335L7.0669 12.0301C7.16434 12.1276 7.29205 12.1763 7.41973 12.1763C7.86032 12.1763 8.08783 11.6397 7.77256 11.3244L7.07751 10.6294L8.50091 9.20596L9.19599 9.90104C9.29343 9.99848 9.42114 10.0472 9.54882 10.0472C9.98941 10.0472 10.2169 9.51058 9.90165 9.19531L9.2066 8.50026L10.63 7.07686L11.3251 7.77195C11.4225 7.86939 11.5502 7.91809 11.6779 7.91809C12.1185 7.91809 12.346 7.38149 12.0307 7.06622L11.3357 6.37117L12.7591 4.94777L13.4542 5.64285C13.5516 5.74029 13.6793 5.789 13.807 5.789C14.2476 5.789 14.4751 5.2524 14.1598 4.93713L13.4648 4.24208L16.0026 1.70423V16.002H16.0027Z" fill="#696969"/>
<path d="M12.9212 8.39667L8.39686 12.921C8.08342 13.2344 8.30578 13.7729 8.74969 13.7729H13.274C13.5496 13.7729 13.773 13.5494 13.773 13.2738V8.74953C13.773 8.30625 13.2351 8.08279 12.9212 8.39667ZM12.775 12.7748H9.95442L12.775 9.95423V12.7748Z" fill="#696969"/>
</g>
<defs>
<clipPath id="clip0_1987_17153">
<rect width="17" height="17" fill="white"/>
</clipPath>
</defs>
</svg>
