<svg width="45" height="45" viewBox="0 0 45 45" fill="none" xmlns="http://www.w3.org/2000/svg">
<rect width="45" height="45" rx="3" fill="#0061DF"/>
<g clip-path="url(#clip0_1987_20950)">
<path d="M18.1598 25.4595L18.4874 25.7893C18.5905 25.8923 18.7276 25.9491 18.8742 25.9491C19.0207 25.9491 19.1581 25.8923 19.2611 25.7893L22.9978 22.0525L26.7387 25.7934C26.8416 25.8965 26.9789 25.9531 27.1254 25.9531C27.2719 25.9531 27.4093 25.8965 27.5124 25.7934L27.84 25.4656C28.0533 25.2525 28.0533 24.9052 27.84 24.6921L23.386 20.222C23.2831 20.1191 23.1459 20.0466 22.9981 20.0466L22.9964 20.0466C22.8498 20.0466 22.7126 20.1192 22.6097 20.222L18.1598 24.6799C18.0567 24.7829 18.0002 24.9242 18 25.0707C18 25.2173 18.0567 25.3566 18.1598 25.4595Z" fill="white"/>
</g>
<defs>
<clipPath id="clip0_1987_20950">
<rect width="10" height="10" fill="white" transform="translate(28 28) rotate(-180)"/>
</clipPath>
</defs>
</svg>
